<svg width="260" height="260" viewBox="0 0 260 260" fill="none" xmlns="http://www.w3.org/2000/svg">
<path d="M130 260C201.797 260 260 201.797 260 130C260 58.203 201.797 0 130 0C58.203 0 0 58.203 0 130C0 201.797 58.203 260 130 260Z" fill="#121212"/>
<path d="M130 244.969C66.625 244.969 15.6 194.147 15.6 130.244C15.6 66.3406 66.625 16.1688 130 16.1688C193.375 16.1688 244.4 66.9906 244.4 130.244C244.4 193.497 193.416 244.969 130 244.969ZM31.2 130.244C31.2 184.275 75.4812 229.694 130 229.694C184.519 229.694 228.8 184.275 228.8 130.244C228.8 76.2125 184.478 31.4031 130 31.4031C75.5219 31.4031 31.2 75.8875 31.2 130.244ZM80.5594 192.847V67.9656H95.8344V122.281H164.044V67.9656H179.319V192.847H164.044V137.556H95.8344V192.847H80.5594Z" fill="white"/>
</svg>
