<?xml version="1.0" standalone="no"?>
<!DOCTYPE svg PUBLIC "-//W3C//DTD SVG 20010904//EN"
 "http://www.w3.org/TR/2001/REC-SVG-20010904/DTD/svg10.dtd">
<svg version="1.0" xmlns="http://www.w3.org/2000/svg"
 width="700.000000pt" height="700.000000pt" viewBox="0 0 700.000000 700.000000"
 preserveAspectRatio="xMidYMid meet">
<metadata>
Created by potrace 1.14, written by Peter Selinger 2001-2017
</metadata>
<g transform="translate(0.000000,700.000000) scale(0.100000,-0.100000)"
fill="#000000" stroke="none">
<path d="M3278 6996 c-1 -2 -39 -6 -83 -10 -638 -49 -1288 -301 -1817 -704
-111 -84 -133 -102 -226 -187 -352 -320 -661 -743 -837 -1145 -25 -58 -52
-118 -59 -135 -51 -115 -148 -423 -171 -546 -3 -13 -11 -58 -20 -99 -29 -147
-35 -193 -52 -370 -15 -163 -8 -592 12 -711 2 -13 6 -46 9 -74 21 -182 109
-547 165 -680 5 -11 25 -65 46 -120 64 -170 223 -480 315 -615 92 -136 124
-180 191 -265 221 -282 505 -544 799 -739 177 -117 208 -135 360 -213 343
-175 732 -299 1099 -349 25 -3 57 -8 71 -10 163 -25 682 -25 842 1 13 2 46 7
73 10 72 10 86 12 120 19 17 3 44 8 60 11 726 138 1438 544 1935 1104 36 41
70 79 76 85 65 68 263 353 352 508 46 79 172 331 172 342 0 3 11 29 24 58 57
127 151 421 182 573 17 81 54 301 59 350 4 33 9 71 11 85 9 46 11 524 4 605
-15 153 -21 210 -25 225 -2 8 -7 35 -10 60 -17 129 -80 384 -136 552 -348
1037 -1165 1855 -2204 2206 -167 56 -419 119 -555 137 -19 3 -46 7 -60 10 -13
2 -52 7 -86 11 -33 3 -74 8 -90 10 -32 5 -540 14 -546 10z m527 -440 c17 -3
55 -7 85 -10 30 -4 66 -8 80 -10 14 -3 41 -7 60 -10 186 -28 465 -108 665
-191 106 -43 302 -140 362 -178 24 -15 45 -27 47 -27 10 0 215 -140 287 -196
127 -98 188 -153 318 -284 433 -438 716 -980 831 -1595 10 -55 21 -125 25
-155 3 -30 10 -89 15 -130 9 -76 6 -534 -3 -580 -3 -14 -8 -52 -12 -85 -3 -33
-17 -118 -30 -190 -149 -793 -612 -1500 -1287 -1968 -235 -162 -507 -297 -778
-385 -98 -32 -308 -86 -370 -96 -19 -3 -46 -8 -60 -11 -14 -3 -43 -8 -65 -11
-22 -3 -51 -7 -65 -9 -182 -27 -716 -26 -810 0 -8 3 -31 6 -50 9 -196 24 -502
109 -728 202 -112 46 -317 149 -397 199 -389 243 -689 521 -932 866 -275 390
-460 856 -529 1328 -4 25 -8 54 -10 64 -19 105 -26 526 -11 682 10 109 34 262
58 370 10 50 21 99 23 110 12 56 83 274 123 375 327 824 1007 1473 1838 1757
188 64 413 119 565 138 30 4 57 8 60 10 3 2 50 6 105 10 55 4 102 8 103 10 6
5 453 -3 487 -9z"/>
<path d="M3338 6155 c-2 -1 -41 -6 -88 -10 -91 -7 -260 -36 -363 -61 -34 -8
-70 -17 -80 -19 -90 -21 -324 -111 -462 -180 -287 -141 -488 -286 -720 -519
-369 -372 -612 -821 -718 -1331 -25 -119 -32 -161 -47 -305 -8 -76 -5 -464 4
-510 2 -14 7 -47 11 -75 23 -199 105 -495 187 -685 151 -344 325 -599 592
-865 390 -388 877 -643 1406 -734 178 -31 236 -35 470 -35 168 1 247 6 360 23
383 58 727 188 1048 397 62 41 118 78 125 84 6 5 50 40 97 77 150 117 367 344
491 513 139 189 270 430 343 630 15 41 31 84 36 95 19 45 74 254 95 365 35
183 44 305 40 540 -2 113 -6 216 -8 230 -3 14 -11 66 -18 115 -7 50 -13 92
-14 95 -1 3 -5 23 -9 45 -40 200 -132 460 -234 660 -271 532 -708 956 -1249
1212 -347 164 -688 242 -1085 248 -114 2 -208 2 -210 0z m-750 -1712 l2 -731
918 2 917 1 0 728 c0 477 3 727 10 728 6 1 99 2 207 3 l197 1 0 -1681 0 -1682
-205 0 -204 -1 -1 52 c0 29 -1 364 -1 745 l0 692 -919 0 -919 0 0 -744 0 -744
-205 0 -205 0 0 1677 c0 923 2 1680 4 1682 3 2 94 4 203 4 l198 -1 3 -731z"/>
</g>
</svg>
