<?xml version="1.0" standalone="no"?>
<!DOCTYPE svg PUBLIC "-//W3C//DTD SVG 20010904//EN"
 "http://www.w3.org/TR/2001/REC-SVG-20010904/DTD/svg10.dtd">
<svg version="1.0" xmlns="http://www.w3.org/2000/svg"
 width="96.000000pt" height="96.000000pt" viewBox="0 0 96.000000 96.000000"
 preserveAspectRatio="xMidYMid meet">
<metadata>
Created by potrace 1.14, written by Peter Selinger 2001-2017
</metadata>
<g transform="translate(0.000000,96.000000) scale(0.100000,-0.100000)"
fill="#000000" stroke="none">
<path d="M95 943 c-37 -20 -58 -41 -79 -81 -14 -27 -16 -79 -16 -379 0 -342 0
-350 22 -393 17 -33 35 -51 68 -68 43 -22 51 -22 400 -22 249 0 359 3 367 11
6 6 21 16 34 23 12 6 33 31 46 55 23 44 23 47 23 390 0 340 0 348 -22 391 -17
33 -35 51 -68 68 -43 22 -51 22 -395 22 -300 -1 -354 -3 -380 -17z"/>
</g>
</svg>
